<mxfile host="app.diagrams.net" modified="2023-07-24T14:00:47.981Z" agent="Mozilla/5.0 (Windows NT 10.0; Win64; x64) AppleWebKit/537.36 (KHTML, like Gecko) Chrome/114.0.0.0 Safari/537.36 Edg/114.0.1823.82" etag="JXG-tNuz9IcnGng5Q9Mu" version="21.6.5" type="github">
  <diagram name="Page-1" id="bfe91b75-5d2c-26a0-9c1d-138518896778">
    <mxGraphModel dx="779" dy="443" grid="1" gridSize="10" guides="1" tooltips="1" connect="1" arrows="1" fold="1" page="1" pageScale="1" pageWidth="1100" pageHeight="850" background="none" math="0" shadow="0">
      <root>
        <mxCell id="0" />
        <mxCell id="1" parent="0" />
        <mxCell id="7c3789c024ecab99-10" value="" style="fontColor=#0066CC;verticalAlign=top;verticalLabelPosition=bottom;labelPosition=center;align=center;html=1;fillColor=#CCCCCC;strokeColor=#6881B3;gradientColor=none;gradientDirection=north;strokeWidth=2;shape=mxgraph.networks.router;rounded=0;shadow=0;comic=0;" parent="1" vertex="1">
          <mxGeometry x="1300" y="882" width="100" height="30" as="geometry" />
        </mxCell>
        <mxCell id="7c3789c024ecab99-51" style="edgeStyle=orthogonalEdgeStyle;html=1;labelBackgroundColor=none;endArrow=none;endFill=0;strokeWidth=2;fontFamily=Verdana;fontSize=15;fontColor=#036897;entryX=1;entryY=0.5;entryDx=0;entryDy=0;entryPerimeter=0;" parent="1" source="7c3789c024ecab99-44" target="7c3789c024ecab99-10" edge="1">
          <mxGeometry relative="1" as="geometry">
            <mxPoint x="1180" y="430" as="targetPoint" />
            <Array as="points">
              <mxPoint x="1520" y="897" />
            </Array>
          </mxGeometry>
        </mxCell>
        <mxCell id="ReUPFHkG13v6wWAUHfJK-18" value="VLAN10 u" style="edgeLabel;html=1;align=center;verticalAlign=middle;resizable=0;points=[];" vertex="1" connectable="0" parent="7c3789c024ecab99-51">
          <mxGeometry x="0.7778" y="-1" relative="1" as="geometry">
            <mxPoint as="offset" />
          </mxGeometry>
        </mxCell>
        <mxCell id="7c3789c024ecab99-44" value="" style="fontColor=#0066CC;verticalAlign=top;verticalLabelPosition=bottom;labelPosition=center;align=center;html=1;fillColor=#CCCCCC;strokeColor=#6881B3;gradientColor=none;gradientDirection=north;strokeWidth=2;shape=mxgraph.networks.wireless_hub;rounded=0;shadow=0;comic=0;" parent="1" vertex="1">
          <mxGeometry x="1470.0000000000002" y="425.00176470588247" width="100" height="85" as="geometry" />
        </mxCell>
        <mxCell id="7c3789c024ecab99-53" value="Internet A" style="html=1;fillColor=#CCCCCC;strokeColor=#6881B3;gradientColor=none;gradientDirection=north;strokeWidth=2;shape=mxgraph.networks.cloud;fontColor=#6881B3;rounded=0;shadow=0;comic=0;align=center;fontSize=28;" parent="1" vertex="1">
          <mxGeometry x="830" y="858" width="180" height="78" as="geometry" />
        </mxCell>
        <mxCell id="7c3789c024ecab99-56" style="edgeStyle=none;html=1;labelBackgroundColor=none;endArrow=none;endFill=0;strokeWidth=2;fontFamily=Verdana;fontSize=28;fontColor=#6881B3;entryX=0.831;entryY=0.45;entryDx=0;entryDy=0;entryPerimeter=0;" parent="1" target="7c3789c024ecab99-53" edge="1">
          <mxGeometry relative="1" as="geometry">
            <mxPoint x="1300" y="890" as="sourcePoint" />
          </mxGeometry>
        </mxCell>
        <mxCell id="ReUPFHkG13v6wWAUHfJK-16" value="VLAN90 u" style="edgeLabel;html=1;align=center;verticalAlign=middle;resizable=0;points=[];" vertex="1" connectable="0" parent="7c3789c024ecab99-56">
          <mxGeometry x="-0.36" y="-1" relative="1" as="geometry">
            <mxPoint as="offset" />
          </mxGeometry>
        </mxCell>
        <mxCell id="ReUPFHkG13v6wWAUHfJK-2" value="Internet B" style="html=1;fillColor=#CCCCCC;strokeColor=#6881B3;gradientColor=none;gradientDirection=north;strokeWidth=2;shape=mxgraph.networks.cloud;fontColor=#6881B3;rounded=0;shadow=0;comic=0;align=center;fontSize=28;" vertex="1" parent="1">
          <mxGeometry x="820" y="960" width="200" height="80" as="geometry" />
        </mxCell>
        <mxCell id="ReUPFHkG13v6wWAUHfJK-4" style="edgeStyle=orthogonalEdgeStyle;html=1;labelBackgroundColor=none;endArrow=none;endFill=0;strokeWidth=2;fontFamily=Verdana;fontSize=15;fontColor=#036897;exitX=0.006;exitY=0.744;exitDx=0;exitDy=0;exitPerimeter=0;entryX=0.997;entryY=0.717;entryDx=0;entryDy=0;entryPerimeter=0;" edge="1" parent="1" source="7c3789c024ecab99-10" target="ReUPFHkG13v6wWAUHfJK-2">
          <mxGeometry relative="1" as="geometry">
            <mxPoint x="980" y="1100" as="targetPoint" />
            <Array as="points">
              <mxPoint x="1230" y="904" />
              <mxPoint x="1230" y="1017" />
              <mxPoint x="1100" y="1017" />
            </Array>
            <mxPoint x="1260" y="860" as="sourcePoint" />
          </mxGeometry>
        </mxCell>
        <mxCell id="ReUPFHkG13v6wWAUHfJK-17" value="VLAN 91 u" style="edgeLabel;html=1;align=center;verticalAlign=middle;resizable=0;points=[];" vertex="1" connectable="0" parent="ReUPFHkG13v6wWAUHfJK-4">
          <mxGeometry x="0.2532" relative="1" as="geometry">
            <mxPoint as="offset" />
          </mxGeometry>
        </mxCell>
        <mxCell id="ReUPFHkG13v6wWAUHfJK-6" value="" style="fontColor=#0066CC;verticalAlign=top;verticalLabelPosition=bottom;labelPosition=center;align=center;html=1;outlineConnect=0;fillColor=#CCCCCC;strokeColor=#6881B3;gradientColor=none;gradientDirection=north;strokeWidth=2;shape=mxgraph.networks.external_storage;" vertex="1" parent="1">
          <mxGeometry x="1210" y="570" width="90" height="100" as="geometry" />
        </mxCell>
        <mxCell id="ReUPFHkG13v6wWAUHfJK-7" style="edgeStyle=none;html=1;labelBackgroundColor=none;endArrow=none;endFill=0;strokeWidth=2;fontFamily=Verdana;fontSize=28;fontColor=#6881B3;entryX=1;entryY=0.5;entryDx=0;entryDy=0;entryPerimeter=0;exitX=0;exitY=0;exitDx=0;exitDy=0;exitPerimeter=0;" edge="1" parent="1" source="ReUPFHkG13v6wWAUHfJK-10" target="ReUPFHkG13v6wWAUHfJK-6">
          <mxGeometry relative="1" as="geometry">
            <mxPoint x="1305" y="700" as="sourcePoint" />
            <mxPoint x="924" y="901" as="targetPoint" />
          </mxGeometry>
        </mxCell>
        <mxCell id="ReUPFHkG13v6wWAUHfJK-9" style="edgeStyle=none;html=1;labelBackgroundColor=none;endArrow=none;endFill=0;strokeWidth=2;fontFamily=Verdana;fontSize=28;fontColor=#6881B3;entryX=0.5;entryY=0;entryDx=0;entryDy=0;entryPerimeter=0;" edge="1" parent="1" target="7c3789c024ecab99-10">
          <mxGeometry relative="1" as="geometry">
            <mxPoint x="1350" y="790" as="sourcePoint" />
            <mxPoint x="924" y="901" as="targetPoint" />
          </mxGeometry>
        </mxCell>
        <mxCell id="ReUPFHkG13v6wWAUHfJK-19" value="VLAN90 t&lt;br&gt;VLAN91 t&lt;br&gt;VLAN10 t" style="edgeLabel;html=1;align=center;verticalAlign=middle;resizable=0;points=[];" vertex="1" connectable="0" parent="ReUPFHkG13v6wWAUHfJK-9">
          <mxGeometry x="0.1625" y="2" relative="1" as="geometry">
            <mxPoint as="offset" />
          </mxGeometry>
        </mxCell>
        <mxCell id="ReUPFHkG13v6wWAUHfJK-10" value="" style="fontColor=#0066CC;verticalAlign=top;verticalLabelPosition=bottom;labelPosition=center;align=center;html=1;outlineConnect=0;fillColor=#CCCCCC;strokeColor=#6881B3;gradientColor=none;gradientDirection=north;strokeWidth=2;shape=mxgraph.networks.firewall;" vertex="1" parent="1">
          <mxGeometry x="1300" y="690" width="100" height="100" as="geometry" />
        </mxCell>
        <mxCell id="ReUPFHkG13v6wWAUHfJK-12" value="" style="fontColor=#0066CC;verticalAlign=top;verticalLabelPosition=bottom;labelPosition=center;align=center;html=1;outlineConnect=0;fillColor=#CCCCCC;strokeColor=#6881B3;gradientColor=none;gradientDirection=north;strokeWidth=2;shape=mxgraph.networks.wireless_modem;" vertex="1" parent="1">
          <mxGeometry x="990" y="705" width="100" height="85" as="geometry" />
        </mxCell>
        <mxCell id="ReUPFHkG13v6wWAUHfJK-14" style="edgeStyle=orthogonalEdgeStyle;html=1;labelBackgroundColor=none;endArrow=none;endFill=0;strokeWidth=2;fontFamily=Verdana;fontSize=15;fontColor=#036897;" edge="1" parent="1" source="ReUPFHkG13v6wWAUHfJK-10" target="ReUPFHkG13v6wWAUHfJK-12">
          <mxGeometry relative="1" as="geometry">
            <mxPoint x="970" y="1110" as="targetPoint" />
            <Array as="points">
              <mxPoint x="1230" y="740" />
              <mxPoint x="1230" y="830" />
              <mxPoint x="1040" y="830" />
            </Array>
            <mxPoint x="1311" y="914" as="sourcePoint" />
          </mxGeometry>
        </mxCell>
        <mxCell id="ReUPFHkG13v6wWAUHfJK-15" value="USB" style="edgeLabel;html=1;align=center;verticalAlign=middle;resizable=0;points=[];" vertex="1" connectable="0" parent="ReUPFHkG13v6wWAUHfJK-14">
          <mxGeometry x="0.4282" y="-2" relative="1" as="geometry">
            <mxPoint as="offset" />
          </mxGeometry>
        </mxCell>
        <mxCell id="ReUPFHkG13v6wWAUHfJK-20" value="" style="fontColor=#0066CC;verticalAlign=top;verticalLabelPosition=bottom;labelPosition=center;align=center;html=1;outlineConnect=0;fillColor=#CCCCCC;strokeColor=#6881B3;gradientColor=none;gradientDirection=north;strokeWidth=2;shape=mxgraph.networks.radio_tower;" vertex="1" parent="1">
          <mxGeometry x="760" y="580" width="55" height="100" as="geometry" />
        </mxCell>
        <mxCell id="ReUPFHkG13v6wWAUHfJK-21" value="" style="html=1;outlineConnect=0;fillColor=#CCCCCC;strokeColor=#6881B3;gradientColor=none;gradientDirection=north;strokeWidth=2;shape=mxgraph.networks.comm_link_edge;html=1;rounded=0;" edge="1" parent="1">
          <mxGeometry width="100" height="100" relative="1" as="geometry">
            <mxPoint x="830" y="610" as="sourcePoint" />
            <mxPoint x="1040" y="700" as="targetPoint" />
          </mxGeometry>
        </mxCell>
      </root>
    </mxGraphModel>
  </diagram>
</mxfile>
